<svg width="32" height="32" viewBox="0 0 32 32" fill="none" xmlns="http://www.w3.org/2000/svg">
    <path d="M12.72 21.2266V14.1067L10.72 16.3333" stroke="#EEEEEE" stroke-width="1.5" stroke-linecap="round"
          stroke-linejoin="round"/>
    <path d="M13.36 5.95998L16 2.66669" stroke="#EEEEEE" stroke-width="1.5" stroke-linecap="round"
          stroke-linejoin="round"/>
    <path d="M6.54663 10.4C5.06663 12.3733 4.14661 14.8133 4.14661 17.48C4.14661 24.0267 9.45329 29.3334 16 29.3334C22.5466 29.3334 27.8533 24.0267 27.8533 17.48C27.8533 10.9333 22.5466 5.62665 16 5.62665C15.0933 5.62665 14.2133 5.74672 13.3599 5.94672"
          stroke="#EEEEEE" stroke-width="1.5" stroke-linecap="round" stroke-linejoin="round"/>
    <path d="M18.6667 14.1067C20.1333 14.1067 21.3333 15.3067 21.3333 16.7734V18.5733C21.3333 20.04 20.1333 21.24 18.6667 21.24C17.2 21.24 16 20.04 16 18.5733V16.7734C16 15.2934 17.2 14.1067 18.6667 14.1067Z"
          stroke="#EEEEEE" stroke-width="1.5" stroke-linecap="round" stroke-linejoin="round"/>
</svg>
