<svg viewBox="0 0 22 19" fill="none" xmlns="http://www.w3.org/2000/svg">
<path d="M11.0004 2.47187C9.90786 1.52532 8.47776 0.999983 6.99349 0.999939C6.20789 1.00071 5.4302 1.14785 4.70518 1.43289C3.98016 1.71793 3.32213 2.13525 2.76896 2.66083C0.409512 4.89329 0.410515 8.38512 2.77096 10.6081L10.123 17.5351C10.2935 17.8176 10.6224 17.9999 11.0004 17.9999C11.1557 17.9985 11.3084 17.9628 11.4463 17.8957C11.5842 17.8286 11.7035 17.732 11.7946 17.6135L19.2299 10.6081C21.5904 8.38418 21.5904 4.89329 19.2279 2.65705C18.675 2.13244 18.0175 1.71597 17.2932 1.43158C16.5689 1.1472 15.7921 1.00051 15.0074 0.999939C13.5232 1.00017 12.0931 1.52548 11.0004 2.47187Z" stroke="#130F26" stroke-width="1.5" stroke-linecap="round" stroke-linejoin="round"/>
</svg>
