<svg xmlns="http://www.w3.org/2000/svg" viewBox="0 0 18 16" fill="none">
    <path d="M9.00035 2.21218C8.12628 1.43267 6.98221 1.00004 5.7948 1C5.16631 1.00063 4.54416 1.12181 3.96415 1.35655C3.38413 1.59129 2.85771 1.93496 2.41517 2.36779C0.52761 4.20629 0.528412 7.08192 2.41677 8.91264L8.29843 14.6172C8.43481 14.8498 8.69793 15 9.00035 15C9.12453 14.9988 9.24669 14.9694 9.35703 14.9142C9.46737 14.8589 9.56281 14.7793 9.63569 14.6818L15.5839 8.91264C17.4723 7.08114 17.4723 4.20629 15.5823 2.36468C15.14 1.93265 14.614 1.58967 14.0346 1.35547C13.4551 1.12127 12.8337 1.00047 12.2059 1C11.0185 1.00019 9.8745 1.4328 9.00035 2.21218Z" fill="#F52424" stroke="#F52424" stroke-width="1.5" stroke-linecap="round" stroke-linejoin="round"/>
</svg>