<svg width="24" height="24" viewBox="0 0 24 24" fill="none" xmlns="http://www.w3.org/2000/svg">
<path fill-rule="evenodd" clip-rule="evenodd" d="M9.32673 7.62696C8.95313 8.06083 8.78966 8.7235 8.78966 9.69677V10.6H7.10001V9.69677C7.10001 8.57727 7.27447 7.34316 8.08363 6.40346C8.903 5.45189 10.198 5 12 5C13.8021 5 15.097 5.45189 15.9164 6.40346C16.7255 7.34316 16.9 8.57727 16.9 9.69677V10.6H15.2104V9.69677C15.2104 8.7235 15.0469 8.06083 14.6733 7.62696C14.3099 7.20495 13.5773 6.80645 12 6.80645C10.4227 6.80645 9.69011 7.20495 9.32673 7.62696Z" fill="#484848"/>
<path fill-rule="evenodd" clip-rule="evenodd" d="M5.09671 12.5829C5 12.9857 5 13.4738 5 14.45C5 15.4262 5 15.9142 5.09671 16.3171C5.40395 17.5968 6.40317 18.596 7.68294 18.9033C8.08575 19 8.57383 19 9.55 19H14.45C15.4262 19 15.9143 19 16.3171 18.9033C17.5968 18.596 18.596 17.5968 18.9033 16.3171C19 15.9142 19 15.4262 19 14.45C19 13.4738 19 12.9857 18.9033 12.5829C18.596 11.3032 17.5968 10.3039 16.3171 9.9967C15.9143 9.89999 15.4262 9.89999 14.45 9.89999H9.55C8.57383 9.89999 8.08575 9.89999 7.68294 9.9967C6.40317 10.3039 5.40395 11.3032 5.09671 12.5829ZM13.75 14.45C13.75 15.4165 12.9665 16.2 12 16.2C11.0335 16.2 10.25 15.4165 10.25 14.45C10.25 13.4835 11.0335 12.7 12 12.7C12.9665 12.7 13.75 13.4835 13.75 14.45Z" fill="#484848"/>
</svg>
