<svg width="24" height="25" viewBox="0 0 24 25" fill="none" xmlns="http://www.w3.org/2000/svg">
<path d="M7 18.9301H11L15.45 21.89C16.11 22.33 17 21.8601 17 21.0601V18.9301C20 18.9301 22 16.9301 22 13.9301V7.92999C22 4.92999 20 2.92999 17 2.92999H7C4 2.92999 2 4.92999 2 7.92999V13.9301C2 16.9301 4 18.9301 7 18.9301Z" stroke="currentColor" stroke-width="1.5" stroke-miterlimit="10" stroke-linecap="round" stroke-linejoin="round"/>
<path d="M11.9999 11.86V11.65C11.9999 10.97 11.5799 10.61 11.1599 10.32C10.7499 10.04 10.34 9.68002 10.34 9.02002C10.34 8.10002 11.0799 7.35999 11.9999 7.35999C12.9199 7.35999 13.6599 8.10002 13.6599 9.02002" stroke="currentColor" stroke-width="1.5" stroke-linecap="round" stroke-linejoin="round"/>
<path d="M11.9955 14.25H12.0045" stroke="currentColor" stroke-width="1.5" stroke-linecap="round" stroke-linejoin="round"/>
</svg>
