<svg width="24" height="24" viewBox="0 0 18 22" fill="none" xmlns="http://www.w3.org/2000/svg">
    <path fill-rule="evenodd" clip-rule="evenodd"
          d="M9.00015 1C4.19431 1 2.10621 5.18591 2.10621 7.95302C2.10621 10.0212 2.41793 9.41253 1.22782 11.9354C-0.225488 15.5306 5.61872 17 9.00015 17C12.3805 17 18.2248 15.5306 16.7725 11.9354C15.5824 9.41253 15.8941 10.0212 15.8941 7.95302C15.8941 5.18591 13.805 1 9.00015 1Z"
          stroke="black" stroke-width="1.5" stroke-linecap="round" stroke-linejoin="round"/>
    <path d="M5.73577 18.7629C5.98554 19.4085 6.42114 19.9655 6.9875 20.3635C7.55385 20.7616 8.22552 20.9827 8.91756 20.999C9.6096 21.0153 10.2909 20.8261 10.8754 20.4551C11.4599 20.0842 11.9212 19.5483 12.2011 18.9152"
          stroke="black" stroke-width="1.5" stroke-linecap="round" stroke-linejoin="round"/>
</svg>
