<svg width="20" height="18" viewBox="0 0 20 18" fill="none" xmlns="http://www.w3.org/2000/svg">
<path fill-rule="evenodd" clip-rule="evenodd" d="M1.3749 8.01126C6.74359 5.61217 10.3236 4.03054 12.1148 3.26638C17.2292 1.08453 18.2919 0.70552 18.9846 0.693005C19.1369 0.690252 19.4776 0.728977 19.6982 0.912613C19.8845 1.06767 19.9358 1.27713 19.9603 1.42415C19.9848 1.57116 20.0154 1.90606 19.9911 2.16774C19.714 5.15452 18.5147 12.4026 17.9046 15.7479C17.6465 17.1634 17.1382 17.638 16.6461 17.6844C15.5766 17.7854 14.7645 16.9595 13.7287 16.2631C12.1078 15.1733 11.1921 14.495 9.61879 13.4315C7.80053 12.2026 8.97923 11.5271 10.0154 10.4232C10.2866 10.1343 14.9987 5.73834 15.0899 5.33955C15.1013 5.28968 15.1119 5.10377 15.0042 5.0056C14.8965 4.90743 14.7376 4.941 14.6229 4.9677C14.4604 5.00554 11.871 6.76094 6.85486 10.2339C6.11988 10.7515 5.45416 11.0037 4.8577 10.9905C4.20015 10.976 2.93528 10.6092 1.99498 10.2957C0.84166 9.91117 -0.074973 9.70788 0.00484519 9.05484C0.0464194 8.7147 0.503103 8.36684 1.3749 8.01126Z" fill="white"/>
</svg>
