<svg width="24" height="24" viewBox="0 0 24 24" fill="none" xmlns="http://www.w3.org/2000/svg">
<path d="M3.3999 6.6C3.3999 6.26863 3.66853 6 3.9999 6H19.9999C20.3313 6 20.5999 6.26863 20.5999 6.6C20.5999 6.93137 20.3313 7.2 19.9999 7.2H3.9999C3.66853 7.2 3.3999 6.93137 3.3999 6.6Z" fill="#130F26"/>
<path d="M5.3999 11.6C5.3999 11.2686 5.66853 11 5.9999 11H17.9999C18.3313 11 18.5999 11.2686 18.5999 11.6C18.5999 11.9314 18.3313 12.2 17.9999 12.2H5.9999C5.66853 12.2 5.3999 11.9314 5.3999 11.6Z" fill="#130F26"/>
<path d="M9.9999 16C9.66853 16 9.3999 16.2686 9.3999 16.6C9.3999 16.9314 9.66853 17.2 9.9999 17.2H13.9999C14.3313 17.2 14.5999 16.9314 14.5999 16.6C14.5999 16.2686 14.3313 16 13.9999 16H9.9999Z" fill="#130F26"/>
</svg>
