<svg width="24" height="24" viewBox="0 0 24 24" fill="none" xmlns="http://www.w3.org/2000/svg">
<path d="M19.7942 9.66667C20.5841 11.0855 21 12.695 21 14.3333C21 15.9717 20.5841 17.5812 19.7942 19L17.8457 17.8333M19.7942 9.66667C19.0043 8.24782 17.8682 7.0696 16.5 6.25043C15.1318 5.43126 13.5798 5 12 5M19.7942 9.66667L17.8457 10.8333M12 5C10.4202 5 8.86817 5.43126 7.5 6.25043C6.13183 7.0696 4.99569 8.24782 4.20577 9.66667M12 5V7.33333M4.20577 9.66667C3.41586 11.0855 3 12.695 3 14.3333C3 15.9717 3.41586 17.5812 4.20577 19L6.15433 17.8333M4.20577 9.66667L6.15433 10.8333M12 14.3333L14.9228 12.5833" stroke="#EEEEEE" stroke-width="1.5" stroke-linecap="round" stroke-linejoin="round"/>
</svg>
