<svg xmlns="http://www.w3.org/2000/svg" width="36px" height="36px" viewBox="0 0 24 24" fill="currentColor">
    <path fill-rule="evenodd" clip-rule="evenodd" d="M2.76923 12.2581C3.19407 12.2581 3.53846 12.6047 3.53846 13.0323V16.795C3.53846 17.46 4.03556 18.0049 4.68081 18.0597C6.63373 18.2255 9.7196 18.4516 12 18.4516C14.2804 18.4516 17.3663 18.2255 19.3192 18.0597C19.9644 18.0049 20.4615 17.46 20.4615 16.795V13.0323C20.4615 12.6047 20.8059 12.2581 21.2308 12.2581C21.6556 12.2581 22 12.6047 22 13.0323V16.795C22 18.2514 20.9036 19.479 19.4485 19.6026C17.494 19.7685 14.3512 20 12 20C9.64875 20 6.50602 19.7685 4.55147 19.6026C3.09638 19.479 2 18.2514 2 16.795V13.0323C2 12.6047 2.3444 12.2581 2.76923 12.2581Z"/>
    <path fill-rule="evenodd" clip-rule="evenodd" d="M11.4561 4.22676C11.7565 3.92441 12.2435 3.92441 12.5439 4.22676L15.6209 7.32353C15.9213 7.62587 15.9213 8.11606 15.6209 8.41841C15.3204 8.72075 14.8334 8.72075 14.533 8.41841L12.7692 6.64326V13.0323C12.7692 13.4598 12.4248 13.8065 12 13.8065C11.5752 13.8065 11.2308 13.4598 11.2308 13.0323V6.64326L9.46701 8.41841C9.1666 8.72075 8.67955 8.72075 8.37915 8.41841C8.07875 8.11606 8.07875 7.62587 8.37915 7.32353L11.4561 4.22676Z"/>
</svg>
