<svg
        xmlns="http://www.w3.org/2000/svg"
        width="24"
        height="24"
        viewBox="0 0 24 24"
        fill="none"
>
    <g id="Frame 489">
        <path
                id="Vector"
                d="M23.4982 5.81032C23.3625 5.2668 23.0951 4.77074 22.7227 4.37179C22.3503 3.97285 21.8861 3.68502 21.3764 3.5371C19.5 3 12 3 12 3C12 3 4.5 3 2.62364 3.5371C2.11393 3.68502 1.64966 3.97285 1.27729 4.37179C0.904916 4.77074 0.637506 5.2668 0.501818 5.81032C5.96046e-08 7.81645 0 12 0 12C0 12 5.96046e-08 16.1835 0.501818 18.1897C0.637506 18.7332 0.904916 19.2293 1.27729 19.6282C1.64966 20.0271 2.11393 20.315 2.62364 20.4629C4.5 21 12 21 12 21C12 21 19.5 21 21.3764 20.4629C21.8861 20.315 22.3503 20.0271 22.7227 19.6282C23.0951 19.2293 23.3625 18.7332 23.4982 18.1897C24 16.1835 24 12 24 12C24 12 24 7.81645 23.4982 5.81032Z"
                fill="#FF0302"
        />
        <path id="Vector_2" d="M10 15V9L17 12L10 15Z" fill="#FEFEFE"/>
    </g>
</svg>
